<svg xmlns="http://www.w3.org/2000/svg" viewBox="0 0 1920 1080"><defs><radialGradient id="c"><stop stop-color="#1d4ed8"/><stop offset="1" stop-color="#020617"/></radialGradient><filter id="d"><feDropShadow dy="28" stdDeviation="28" flood-opacity=".65"/></filter></defs><rect width="1920" height="1080" fill="url(#c)"/><g transform="translate(315 145) rotate(-2 645 390)" filter="url(#d)"><rect width="1290" height="780" rx="65" fill="#1e3a8a" stroke="#93c5fd" stroke-width="8"/><g fill="#020617" stroke="#60a5fa" stroke-width="5"><circle cx="120" cy="115" r="72"/><circle cx="295" cy="115" r="72"/><circle cx="470" cy="115" r="72"/><circle cx="645" cy="115" r="72"/><circle cx="820" cy="115" r="72"/><circle cx="995" cy="115" r="72"/><circle cx="1170" cy="115" r="72"/><circle cx="120" cy="290" r="72"/><circle cx="295" cy="290" r="72"/><circle cx="470" cy="290" r="72"/><circle cx="645" cy="290" r="72"/><circle cx="820" cy="290" r="72"/><circle cx="995" cy="290" r="72"/><circle cx="1170" cy="290" r="72"/></g><g stroke="#fff" stroke-width="5"><circle cx="120" cy="465" r="72" fill="#f59e0b"/><circle cx="295" cy="465" r="72" fill="#d946ef"/><circle cx="470" cy="465" r="72" fill="#f59e0b"/><circle cx="645" cy="465" r="72" fill="#d946ef"/><circle cx="295" cy="640" r="72" fill="#f59e0b"/><circle cx="470" cy="640" r="72" fill="#d946ef"/><circle cx="645" cy="640" r="72" fill="#f59e0b"/><circle cx="820" cy="640" r="72" fill="#d946ef"/></g></g></svg>
