<svg xmlns="http://www.w3.org/2000/svg" viewBox="0 0 1920 1080" role="img" aria-label="Visionex Arcade Snake cover"><defs><radialGradient id="sky" cx="62%" cy="26%" r="86%"><stop offset="0" stop-color="#2a1a63"/><stop offset="0.55" stop-color="#120c33"/><stop offset="1" stop-color="#06070f"/></radialGradient><linearGradient id="body" x1="0" y1="0" x2="1" y2="1"><stop offset="0" stop-color="#67e8f9"/><stop offset="0.5" stop-color="#818cf8"/><stop offset="1" stop-color="#7c3aed"/></linearGradient><filter id="soft" x="-30%" y="-30%" width="160%" height="160%"><feGaussianBlur stdDeviation="26"/></filter><filter id="glow" x="-60%" y="-60%" width="220%" height="220%"><feGaussianBlur stdDeviation="14" result="b"/><feMerge><feMergeNode in="b"/><feMergeNode in="SourceGraphic"/></feMerge></filter><pattern id="grid" width="80" height="80" patternUnits="userSpaceOnUse"><path d="M80 0H0V80" fill="none" stroke="#7dd3fc" stroke-width="1.5" opacity="0.10"/></pattern></defs>

<rect width="1920" height="1080" fill="url(#sky)"/>
<rect width="1920" height="1080" fill="url(#grid)"/>
<circle cx="1560" cy="200" r="300" fill="#22d3ee" opacity="0.16" filter="url(#soft)"/>
<circle cx="330" cy="900" r="260" fill="#a855f7" opacity="0.18" filter="url(#soft)"/>

<g transform="translate(430 180)">
  <rect x="-34" y="-34" width="1128" height="788" rx="52" fill="#04060e" opacity="0.72" stroke="#7dd3fc" stroke-opacity="0.22" stroke-width="3"/>

  <g fill="url(#body)" opacity="0.96">
    <rect x="60" y="600" width="88" height="88" rx="22"/>
    <rect x="160" y="600" width="88" height="88" rx="22"/>
    <rect x="260" y="600" width="88" height="88" rx="22"/>
    <rect x="360" y="600" width="88" height="88" rx="22"/>
    <rect x="360" y="500" width="88" height="88" rx="22"/>
    <rect x="360" y="400" width="88" height="88" rx="22"/>
    <rect x="460" y="400" width="88" height="88" rx="22"/>
    <rect x="560" y="400" width="88" height="88" rx="22"/>
    <rect x="660" y="400" width="88" height="88" rx="22"/>
    <rect x="660" y="300" width="88" height="88" rx="22"/>
    <rect x="660" y="200" width="88" height="88" rx="22"/>
    <rect x="760" y="200" width="88" height="88" rx="22"/>
  </g>

  <g filter="url(#glow)">
    <rect x="860" y="200" width="88" height="88" rx="24" fill="#a5f3fc" stroke="#ffffff" stroke-width="6"/>
    <circle cx="908" cy="228" r="9" fill="#0b1020"/>
    <circle cx="908" cy="262" r="9" fill="#0b1020"/>
  </g>

  <g filter="url(#glow)" transform="translate(920 620)">
    <path d="M44 0 88 44 44 88 0 44Z" fill="#fbbf24"/>
    <path d="M44 18 70 44 44 70 18 44Z" fill="#fde68a"/>
  </g>

  <g fill="#94a3b8" opacity="0.55">
    <rect x="160" y="200" width="88" height="88" rx="18"/>
    <rect x="260" y="200" width="88" height="88" rx="18"/>
    <rect x="760" y="600" width="88" height="88" rx="18"/>
  </g>

  <g fill="none" stroke="#22d3ee" stroke-width="4" stroke-linecap="round" opacity="0.45">
    <path d="M948 244h104"/>
    <path d="M1006 214l46 30-46 30"/>
  </g>
</g>
</svg>
